<svg width="607" height="245.00000000000003" xmlns="http://www.w3.org/2000/svg">

 <g>
  <title>background</title>
  <rect fill="#009877" id="canvas_background" height="247" width="609" y="-1" x="-1"/>
 </g>
 <g>
  <title>Layer 1</title>
  <g id="svg_1">
   <path id="svg_2" fill="#bd2519" d="m601.576233,121.528519l-134.036255,-99.929672c-3.72403,-2.474003 -7.795258,-2.950008 -12.217407,-1.427002c-4.417267,1.525009 -6.635071,4.283024 -6.635071,8.282028l0,63.954407l-435.62496,0c-3.259454,0 -5.93695,0.855003 -8.028821,2.568016c-2.090647,1.712013 -3.140862,3.902039 -3.140862,6.566063l0,54.816223c0,2.662994 1.045324,4.852997 3.139639,6.563019c2.096761,1.711975 4.774258,2.566986 8.028822,2.566986l435.628654,0l0,63.953003c0,3.812012 2.221436,6.570007 6.63623,8.278015c4.425873,1.528992 8.497101,0.950989 12.22113,-1.708008l134.036285,-101.077011c2.326538,-1.901993 3.486816,-4.182007 3.486816,-6.848999c0,-2.468025 -1.167542,-4.654053 -3.494202,-6.557068z"/>
  </g>
  <g id="svg_3"/>
  <g id="svg_4"/>
  <g id="svg_5"/>
  <g id="svg_6"/>
  <g id="svg_7"/>
  <g id="svg_8"/>
  <g id="svg_9"/>
  <g id="svg_10"/>
  <g id="svg_11"/>
  <g id="svg_12"/>
  <g id="svg_13"/>
  <g id="svg_14"/>
  <g id="svg_15"/>
  <g id="svg_16"/>
  <g id="svg_17"/>
 </g>
</svg>