<svg width="250" height="250" xmlns="http://www.w3.org/2000/svg" xmlns:xlink="http://www.w3.org/1999/xlink">
 <defs>
  <g id="L1_7" transform="matrix(0.29922056198120117 0 0 0.29922056198120117 105.8544921875 43.84440612792969)">
   <path id="svg_1" fill="#f53131" d="m9.954,241.304993l228.440989,0c3.05101,0 5.896011,-1.246002 7.805008,-3.416c1.658997,-1.882004 2.39299,-4.270004 2.078003,-6.722992c-5.35701,-41.734009 -31.018997,-76.511017 -66.150009,-95.053009c-14.848999,14.848999 -35.347992,24.046005 -57.952995,24.046005s-43.105003,-9.197006 -57.953003,-24.046005c-35.131992,18.537003 -60.798993,53.319016 -66.150992,95.053009c-0.315,2.453003 0.424,4.845993 2.078,6.723007c1.909,2.169998 4.754,3.415985 7.805001,3.415985z"/>
   <path id="svg_2" fill="#f53131" d="m72.698997,127.089996c1.333,1.397995 2.724998,2.729996 4.166,4.018997c12.585999,11.259003 29.137001,18.166 47.308998,18.166s34.722992,-6.912994 47.30899,-18.166c1.44101,-1.289001 2.834015,-2.621994 4.166,-4.018997c1.327011,-1.398003 2.622009,-2.828003 3.840012,-4.329002c9.860992,-12.210999 15.800003,-27.716995 15.800003,-44.599998c0,-39.215996 -31.906006,-71.115994 -71.116005,-71.115994s-71.113998,31.905 -71.113998,71.115003c0,16.882996 5.938999,32.389999 15.800003,44.599998c1.212997,1.501999 2.506996,2.926994 3.839996,4.329994z"/>
  </g>
  <g id="L1_8" transform="matrix(0.2819521129131317 0 0 0.2819521129131317 60.99577713012695 63.98871612548828)">
   <path id="svg_3" fill="#010002" d="m9.954,241.304993l228.440989,0c3.05101,0 5.896011,-1.246002 7.805008,-3.416c1.658997,-1.882004 2.39299,-4.270004 2.078003,-6.722992c-5.35701,-41.734009 -31.018997,-76.511017 -66.150009,-95.053009c-14.848999,14.848999 -35.347992,24.046005 -57.952995,24.046005s-43.105003,-9.197006 -57.953003,-24.046005c-35.131992,18.537003 -60.798993,53.319016 -66.150992,95.053009c-0.315,2.453003 0.424,4.845993 2.078,6.723007c1.909,2.169998 4.754,3.415985 7.805001,3.415985z"/>
   <path id="svg_4" fill="#010002" d="m72.698997,127.089996c1.333,1.397995 2.724998,2.729996 4.166,4.018997c12.585999,11.259003 29.137001,18.166 47.308998,18.166s34.722992,-6.912994 47.30899,-18.166c1.44101,-1.289001 2.834015,-2.621994 4.166,-4.018997c1.327011,-1.398003 2.622009,-2.828003 3.840012,-4.329002c9.860992,-12.210999 15.800003,-27.716995 15.800003,-44.599998c0,-39.215996 -31.906006,-71.115994 -71.116005,-71.115994s-71.113998,31.905 -71.113998,71.115003c0,16.882996 5.938999,32.389999 15.800003,44.599998c1.212997,1.501999 2.506996,2.926994 3.839996,4.329994z"/>
  </g>
  <path fill="#f50c18" id="L1_10" d="m118.169937,224.135178c-61.734882,0 -111.963141,-50.227661 -111.963141,-111.962547c0.000001,-61.739708 50.228259,-111.967362 111.963141,-111.967362c61.734283,0 111.961929,50.227654 111.961929,111.967378c0.00061,61.734276 -50.227036,111.962532 -111.961929,111.962532zm0,-204.040934c-50.770004,0 -92.074165,41.307177 -92.074165,92.078386c0,50.769402 41.304161,92.07296 92.074165,92.07296c50.770004,0 92.074173,-41.304153 92.074173,-92.07296c0,-50.77121 -41.304169,-92.078386 -92.074173,-92.078386z"/>
  <path fill="#ffcf57" id="L1_13" d="m117.168762,172.922485l18.68779,-18.688126c0.099319,-0.099319 0.168732,-0.21582 0.261185,-0.319611c5.578018,3.6772 12.255066,5.823395 19.435593,5.823395c19.532867,0 35.367203,-15.834351 35.367203,-35.366859s-15.834335,-35.366852 -35.366852,-35.366852c-19.532166,0 -35.366859,15.834 -35.366859,35.366508c0,7.180878 2.146187,13.85759 5.823395,19.435608c-0.103447,0.092438 -0.219948,0.161514 -0.31926,0.260834l-18.688477,18.688477c-2.807053,2.807388 -2.807053,7.358887 0,10.166626c2.807396,2.807053 7.358887,2.807053 10.166283,0zm15.278641,-48.551201c0,-12.761635 10.344986,-23.106621 23.106277,-23.106621c12.761627,0 23.106628,10.345329 23.106628,23.106621c0,12.760948 -10.345337,23.106285 -23.106628,23.106285c-12.761292,0 -23.106277,-10.345337 -23.106277,-23.106285z"/>
  <pattern patternTransform="matrix(0.9732638597488403,0,0,0.9732638597488403,14.02604866027832,22.078147888183594)" patternUnits="userSpaceOnUse" height="350" width="350" id="pattern_L1_7">
   <use id="svg_5" y="-350" x="-350" xlink:href="#L1_7"/>
   <use id="svg_6" y="-350" x="0" xlink:href="#L1_7"/>
   <use id="svg_7" y="-350" x="350" xlink:href="#L1_7"/>
   <use id="svg_8" y="0" x="-350" xlink:href="#L1_7"/>
   <use id="svg_9" y="0" x="0" xlink:href="#L1_7"/>
   <use id="svg_10" y="0" x="350" xlink:href="#L1_7"/>
   <use id="svg_11" y="350" x="-350" xlink:href="#L1_7"/>
   <use id="svg_12" y="350" x="0" xlink:href="#L1_7"/>
   <use id="svg_13" y="350" x="350" xlink:href="#L1_7"/>
  </pattern>
  <pattern patternTransform="matrix(1.0267361402511597,0,0,1.0401041507720947,10.02604866027832,20.052108764648438)" patternUnits="userSpaceOnUse" height="350" width="350" id="pattern_L1_8">
   <use id="svg_14" y="-350" x="-350" xlink:href="#L1_8"/>
   <use id="svg_15" y="-350" x="0" xlink:href="#L1_8"/>
   <use id="svg_16" y="-350" x="350" xlink:href="#L1_8"/>
   <use id="svg_17" y="0" x="-350" xlink:href="#L1_8"/>
   <use id="svg_18" y="0" x="0" xlink:href="#L1_8"/>
   <use id="svg_19" y="0" x="350" xlink:href="#L1_8"/>
   <use id="svg_20" y="350" x="-350" xlink:href="#L1_8"/>
   <use id="svg_21" y="350" x="0" xlink:href="#L1_8"/>
   <use id="svg_22" y="350" x="350" xlink:href="#L1_8"/>
  </pattern>
  <pattern patternTransform="matrix(1.0534722805023193,0,0,1.0534722805023193,1,8.026036262512207)" patternUnits="userSpaceOnUse" height="350" width="350" id="pattern_L1_10">
   <use id="svg_23" y="-350" x="-350" xlink:href="#L1_10"/>
   <use id="svg_24" y="-350" x="0" xlink:href="#L1_10"/>
   <use id="svg_25" y="-350" x="350" xlink:href="#L1_10"/>
   <use id="svg_26" y="0" x="-350" xlink:href="#L1_10"/>
   <use id="svg_27" y="0" x="0" xlink:href="#L1_10"/>
   <use id="svg_28" y="0" x="350" xlink:href="#L1_10"/>
   <use id="svg_29" y="350" x="-350" xlink:href="#L1_10"/>
   <use id="svg_30" y="350" x="0" xlink:href="#L1_10"/>
   <use id="svg_31" y="350" x="350" xlink:href="#L1_10"/>
  </pattern>
  <pattern patternTransform="matrix(1.02640700340271,0,0,1.0041824579238892,0,19.006481170654297)" patternUnits="userSpaceOnUse" height="350" width="350" id="pattern_L1_13">
   <use id="svg_32" y="-350" x="-350" xlink:href="#L1_13"/>
   <use id="svg_33" y="-350" x="0" xlink:href="#L1_13"/>
   <use id="svg_34" y="-350" x="350" xlink:href="#L1_13"/>
   <use id="svg_35" y="0" x="-350" xlink:href="#L1_13"/>
   <use id="svg_36" y="0" x="0" xlink:href="#L1_13"/>
   <use id="svg_37" y="0" x="350" xlink:href="#L1_13"/>
   <use id="svg_38" y="350" x="-350" xlink:href="#L1_13"/>
   <use id="svg_39" y="350" x="0" xlink:href="#L1_13"/>
   <use id="svg_40" y="350" x="350" xlink:href="#L1_13"/>
  </pattern>
 </defs>
 <g>
  <title>background</title>
  <rect fill="none" id="canvas_background" height="252" width="252" y="-1" x="-1"/>
 </g>
 <g>
  <title>Layer 1</title>
  <rect id="svg_41" fill="#ffffff" opacity="0" height="100%" width="100%" y="0px" x="0px"/>
  <g id="svg_42">
   <rect id="svg_43" fill="url(#pattern_L1_7)" height="243.315966" width="243.315963" y="22.078147" x="14.026049"/>
  </g>
  <g id="svg_44">
   <rect id="svg_45" fill="url(#pattern_L1_8)" height="260.026038" width="256.684035" y="20.052109" x="10.026049"/>
  </g>
  <g id="svg_46">
   <rect id="svg_47" fill="url(#pattern_L1_10)" height="263.368069" width="263.368066" y="8.026036" x="1"/>
  </g>
  <g id="svg_48">
   <rect transform="rotate(9, 128.342, 145.052)" id="svg_49" fill="url(#pattern_L1_13)" height="251.045614" width="256.601751" y="19.529291" x="0.041146"/>
  </g>
 </g>
</svg>