<svg width="250" height="250" xmlns="http://www.w3.org/2000/svg" xmlns:xlink="http://www.w3.org/1999/xlink">
 <defs>
  <path fill="#f5b547" id="L1_0" d="m59.444691,181.356628c-8.280102,-5.007034 -17.255138,-7.654343 -26.927223,-7.9422c-9.673285,-0.286926 -18.852931,1.934708 -27.545552,6.667358c-8.69174,4.732162 -15.542031,11.237946 -20.549517,19.517731c-5.008161,8.279587 -7.655473,17.254623 -7.943309,26.927277c-0.287815,9.673187 1.935127,18.855255 6.666941,27.546341c4.732052,8.691513 11.237774,15.540146 19.517613,20.549301c8.279886,5.007141 17.254918,7.654449 26.927684,7.942505c9.672726,0.286957 18.854244,-1.935425 27.545773,-6.66748s15.541908,-11.238159 20.54995,-19.517975c5.007957,-8.2789 7.654221,-17.255356 7.941978,-26.927109c0.286629,-9.672256 -1.936409,-18.853973 -6.668228,-27.545059c-4.732079,-8.692078 -11.237976,-15.542587 -19.516109,-20.55069z"/>
  <path fill="#f5332c" id="L1_1" d="m12.514359,105.050522c-67.072212,8.517105 -114.980934,70.362915 -106.463829,137.435135s70.362913,114.980927 137.435127,106.463837s114.980942,-70.362915 106.463821,-137.435135s-70.362907,-114.980942 -137.43512,-106.463837zm27.874168,219.509048c-53.65777,6.81369 -103.134418,-31.513275 -109.948105,-85.171051s31.513298,-103.134415 85.171066,-109.948105s103.134415,31.513306 109.948105,85.171066s-31.51329,103.13443 -85.171066,109.94809z"/>
  <g id="L1_2" transform="matrix(0.28617730736732483 0 0 0.28617730736732483 -46.73832702636719 184.19256591796875)">
   <path id="svg_1" fill="#f52f2c" d="m355.105011,118.904999c-14.799011,0 -22.337006,-6.899002 -28.988007,-12.986c-6.005005,-5.497002 -10.748993,-9.838997 -20.885986,-9.838997c-10.136993,0 -14.881012,4.341995 -20.886993,9.838997c-6.650024,6.086998 -14.188019,12.986 -28.988022,12.986c-14.799988,0 -22.33699,-6.899002 -28.987991,-12.986c-6.005005,-5.497002 -10.748001,-9.838997 -20.884995,-9.838997c-10.136002,0 -14.879013,4.341995 -20.884003,9.838997c-6.650009,6.086998 -14.188004,12.986 -28.988007,12.986c-14.798004,0 -22.334,-6.899002 -28.984001,-12.986c-6.003998,-5.497002 -10.746994,-9.838997 -20.881996,-9.838997c-10.136002,0 -14.878998,4.341995 -20.884003,9.838997c-6.649994,6.086998 -14.187996,12.986 -28.987,12.986c-14.799999,0 -22.337997,-6.899002 -28.988998,-12.986c-6.005011,-5.497002 -10.748011,-9.838997 -20.88501,-9.838997c-3.313,0 -6,-2.686005 -6,-6c0,-3.313004 2.687,-6 6,-6c14.799,0 22.337,6.898994 28.987999,12.986c6.005001,5.497002 10.749001,9.838997 20.886002,9.838997c10.136002,0 14.878998,-4.341995 20.884003,-9.837997c6.649994,-6.088005 14.187996,-12.987 28.987,-12.987c14.797997,0 22.334999,6.900002 28.984993,12.987c6.003998,5.497002 10.746002,9.837997 20.880997,9.837997c10.137009,0 14.880005,-4.341995 20.88501,-9.837997c6.649994,-6.088005 14.188004,-12.987 28.987,-12.987c14.800003,0 22.337006,6.898994 28.987991,12.987c6.005005,5.496002 10.749008,9.837997 20.88501,9.837997c10.137985,0 14.880997,-4.341995 20.886002,-9.837997c6.651001,-6.088005 14.188995,-12.987 28.988983,-12.987s22.338013,6.898994 28.989014,12.987c6.005005,5.496002 10.747986,9.837997 20.88501,9.837997c10.138977,0 14.882996,-4.341995 20.889984,-9.838997c6.651001,-6.087006 14.190002,-12.986 28.990997,-12.986c3.313019,0 6,2.686996 6,6c0,3.313995 -2.686981,6 -6,6c-10.139008,0 -14.882996,4.341995 -20.889984,9.838997c-6.651001,6.086998 -14.188995,12.986 -28.990997,12.986z"/>
   <path id="svg_2" fill="#f52f2c" d="m355.105011,170.904999c-14.799011,0 -22.337006,-6.899002 -28.988007,-12.985992c-6.005005,-5.497009 -10.748993,-9.839005 -20.885986,-9.839005c-10.136993,0 -14.881012,4.341995 -20.886993,9.839005c-6.650024,6.08699 -14.188019,12.985992 -28.988022,12.985992c-14.799988,0 -22.33699,-6.899002 -28.987991,-12.985992c-6.005005,-5.497009 -10.748001,-9.839005 -20.884995,-9.839005c-10.136002,0 -14.879013,4.341995 -20.884003,9.839005c-6.650009,6.08699 -14.188004,12.985992 -28.988007,12.985992c-14.798004,0 -22.334,-6.899002 -28.984001,-12.985992c-6.003998,-5.497009 -10.746994,-9.839005 -20.881996,-9.839005c-10.136002,0 -14.878998,4.341995 -20.884003,9.839005c-6.649994,6.08699 -14.187996,12.985992 -28.987,12.985992c-14.799999,0 -22.337997,-6.899002 -28.988998,-12.985992c-6.005011,-5.497009 -10.748011,-9.839005 -20.88501,-9.839005c-3.313,0 -6,-2.686005 -6,-6c0,-3.313004 2.687,-6 6,-6c14.799,0 22.337,6.899002 28.987999,12.985992c6.005001,5.497009 10.749001,9.839005 20.886002,9.839005c10.136002,0 14.878998,-4.341995 20.884003,-9.837997c6.649994,-6.087997 14.187996,-12.987 28.987,-12.987c14.797997,0 22.334999,6.899994 28.984993,12.987c6.003998,5.496994 10.746002,9.837997 20.880997,9.837997c10.137009,0 14.880005,-4.341995 20.88501,-9.837997c6.649994,-6.087997 14.188004,-12.987 28.987,-12.987c14.800003,0 22.337006,6.899002 28.987991,12.987c6.005005,5.496002 10.749008,9.837997 20.88501,9.837997c10.137985,0 14.880997,-4.341995 20.886002,-9.837997c6.651001,-6.087997 14.188995,-12.987 28.988983,-12.987s22.338013,6.899002 28.989014,12.987c6.005005,5.496002 10.747986,9.837997 20.88501,9.837997c10.138977,0 14.882996,-4.341995 20.889984,-9.839005c6.651001,-6.08699 14.190002,-12.985992 28.990997,-12.985992c3.313019,0 6,2.686996 6,6c0,3.313995 -2.686981,6 -6,6c-10.139008,0 -14.882996,4.341995 -20.889984,9.839005c-6.651001,6.08699 -14.188995,12.985992 -28.990997,12.985992z"/>
   <path id="svg_3" fill="#f52f2c" d="m355.105011,222.906006c-14.799011,0 -22.337006,-6.899002 -28.988007,-12.985992c-6.005005,-5.497009 -10.748993,-9.839005 -20.885986,-9.839005c-10.136993,0 -14.881012,4.341995 -20.886993,9.837997c-6.650024,6.087997 -14.188019,12.987 -28.988022,12.987c-14.799988,0 -22.33699,-6.899002 -28.987991,-12.987c-6.005005,-5.496002 -10.748001,-9.837997 -20.884995,-9.837997c-10.136002,0 -14.879013,4.341995 -20.884003,9.837997c-6.650009,6.087997 -14.188004,12.987 -28.988007,12.987c-14.798004,0 -22.334,-6.899002 -28.984001,-12.987c-6.003998,-5.496002 -10.746994,-9.837997 -20.881996,-9.837997c-10.136002,0 -14.878998,4.341995 -20.884003,9.837997c-6.649994,6.087997 -14.187996,12.987 -28.987,12.987c-14.799999,0 -22.337997,-6.899002 -28.988998,-12.987c-6.004999,-5.496002 -10.749001,-9.837997 -20.885,-9.837997c-3.313,0 -6,-2.686996 -6,-6c0,-3.313995 2.687,-6 6,-6c14.798999,0 22.336999,6.899002 28.988,12.986008c6.005001,5.496994 10.749001,9.838989 20.885998,9.838989c10.136002,0 14.879005,-4.341995 20.884003,-9.838989c6.650002,-6.087006 14.187996,-12.986008 28.987,-12.986008c14.797997,0 22.335007,6.899002 28.985001,12.987c6.003998,5.496002 10.746002,9.837997 20.880997,9.837997c10.137009,0 14.880005,-4.341995 20.88501,-9.838989c6.649994,-6.087006 14.187988,-12.986008 28.987,-12.986008c14.799988,0 22.33699,6.899002 28.987991,12.986008c6.005005,5.496994 10.749008,9.838989 20.884995,9.838989c10.138016,0 14.880997,-4.341995 20.886002,-9.838989c6.651001,-6.087006 14.188995,-12.986008 28.989014,-12.986008s22.337982,6.899002 28.988983,12.986008c6.005005,5.496994 10.748016,9.838989 20.88501,9.838989c10.139008,0 14.882996,-4.341995 20.889984,-9.838989c6.651001,-6.087006 14.190002,-12.986008 28.991028,-12.986008c3.312988,0 6,2.686005 6,6c0,3.313004 -2.687012,6 -6,6c-10.139008,0 -14.883026,4.341995 -20.890015,9.839005c-6.651001,6.08699 -14.188995,12.985992 -28.990997,12.985992z"/>
   <path id="svg_4" fill="#f52f2c" d="m355.105011,274.906006c-14.799011,0 -22.337006,-6.898987 -28.988007,-12.985992c-6.005005,-5.497009 -10.748993,-9.839005 -20.885986,-9.839005c-10.136993,0 -14.881012,4.341995 -20.886993,9.837997c-6.650024,6.088013 -14.188019,12.987 -28.988022,12.987c-14.799988,0 -22.33699,-6.898987 -28.987991,-12.987c-6.005005,-5.496002 -10.748001,-9.837997 -20.884995,-9.837997c-10.136002,0 -14.879013,4.341995 -20.884003,9.837997c-6.650009,6.088013 -14.188004,12.987 -28.988007,12.987c-14.798004,0 -22.334,-6.898987 -28.984001,-12.987c-6.003998,-5.496002 -10.746994,-9.837997 -20.881996,-9.837997c-10.136002,0 -14.878998,4.341995 -20.884003,9.837997c-6.649994,6.088013 -14.187996,12.987 -28.987,12.987c-14.799999,0 -22.337997,-6.898987 -28.988998,-12.987c-6.004999,-5.496002 -10.749001,-9.837997 -20.885,-9.837997c-3.313,0 -6,-2.686996 -6,-6c0,-3.313995 2.687,-6 6,-6c14.798999,0 22.336999,6.899002 28.988,12.986008c6.005001,5.496979 10.749001,9.838989 20.885998,9.838989c10.136002,0 14.879005,-4.34201 20.884003,-9.838989c6.650002,-6.087006 14.187996,-12.986008 28.987,-12.986008c14.797997,0 22.335007,6.899002 28.985001,12.987c6.003998,5.495987 10.746002,9.837997 20.880997,9.837997c10.137009,0 14.880005,-4.34201 20.88501,-9.838989c6.649994,-6.087006 14.187988,-12.986008 28.987,-12.986008c14.799988,0 22.33699,6.899002 28.987991,12.986008c6.005005,5.496979 10.749008,9.838989 20.884995,9.838989c10.138016,0 14.880997,-4.34201 20.886002,-9.838989c6.651001,-6.087006 14.188995,-12.986008 28.989014,-12.986008s22.337982,6.899002 28.988983,12.986008c6.005005,5.496979 10.748016,9.838989 20.88501,9.838989c10.139008,0 14.882996,-4.34201 20.889984,-9.838989c6.651001,-6.087006 14.190002,-12.986008 28.991028,-12.986008c3.312988,0 6,2.686005 6,6c0,3.313004 -2.687012,6 -6,6c-10.139008,0 -14.883026,4.341995 -20.890015,9.839005c-6.651001,6.086975 -14.188995,12.985992 -28.990997,12.985992z"/>
   <path id="svg_5" fill="#f52f2c" d="m355.105011,326.906006c-14.799011,0 -22.337006,-6.898987 -28.988007,-12.985992c-6.005005,-5.497009 -10.748993,-9.838989 -20.885986,-9.838989c-10.136993,0 -14.881012,4.34198 -20.886993,9.837982c-6.650024,6.088013 -14.188019,12.987 -28.988022,12.987c-14.799988,0 -22.33699,-6.898987 -28.987991,-12.987c-6.005005,-5.496002 -10.748001,-9.837982 -20.884995,-9.837982c-10.136002,0 -14.879013,4.34198 -20.884003,9.837982c-6.650009,6.088013 -14.188004,12.987 -28.988007,12.987c-14.798004,0 -22.334,-6.898987 -28.984001,-12.987c-6.003998,-5.496002 -10.746994,-9.837982 -20.881996,-9.837982c-10.136002,0 -14.878998,4.34198 -20.884003,9.837982c-6.649994,6.088013 -14.187996,12.987 -28.987,12.987c-14.799999,0 -22.337997,-6.898987 -28.988998,-12.987c-6.004999,-5.496002 -10.749001,-9.837982 -20.885,-9.837982c-3.313,0 -6,-2.687012 -6,-6c0,-3.315002 2.687,-6 6,-6c14.798999,0 22.336999,6.898987 28.988,12.985992c6.005001,5.496979 10.749001,9.838989 20.885998,9.838989c10.136002,0 14.879005,-4.34201 20.884003,-9.838989c6.650002,-6.087006 14.187996,-12.985992 28.987,-12.985992c14.797997,0 22.335007,6.898987 28.985001,12.987c6.003998,5.495972 10.746002,9.837982 20.880997,9.837982c10.137009,0 14.880005,-4.34201 20.88501,-9.838989c6.649994,-6.087006 14.187988,-12.985992 28.987,-12.985992c14.799988,0 22.33699,6.898987 28.987991,12.985992c6.005005,5.496979 10.749008,9.838989 20.884995,9.838989c10.138016,0 14.880997,-4.34201 20.886002,-9.838989c6.651001,-6.087006 14.188995,-12.985992 28.989014,-12.985992s22.337982,6.898987 28.988983,12.985992c6.005005,5.496979 10.748016,9.838989 20.88501,9.838989c10.139008,0 14.882996,-4.34201 20.889984,-9.838989c6.651001,-6.087006 14.190002,-12.985992 28.991028,-12.985992c3.312988,0 6,2.684998 6,6c0,3.312988 -2.687012,6 -6,6c-10.139008,0 -14.883026,4.34198 -20.890015,9.838989c-6.651001,6.086975 -14.188995,12.985992 -28.990997,12.985992z"/>
  </g>
  <pattern patternTransform="matrix(1.0204746723175049,0,0,1.0199676752090454,-262.06396484375,-106.32444763183594)" patternUnits="userSpaceOnUse" height="350" width="350" id="pattern_L1_0">
   <use id="svg_6" y="-350" x="-350" xlink:href="#L1_0"/>
   <use id="svg_7" y="-350" x="0" xlink:href="#L1_0"/>
   <use id="svg_8" y="-350" x="350" xlink:href="#L1_0"/>
   <use id="svg_9" y="0" x="-350" xlink:href="#L1_0"/>
   <use id="svg_10" y="0" x="0" xlink:href="#L1_0"/>
   <use id="svg_11" y="0" x="350" xlink:href="#L1_0"/>
   <use id="svg_12" y="350" x="-350" xlink:href="#L1_0"/>
   <use id="svg_13" y="350" x="0" xlink:href="#L1_0"/>
   <use id="svg_14" y="350" x="350" xlink:href="#L1_0"/>
  </pattern>
  <pattern patternTransform="matrix(1,0,0,1,-252.08660888671875,-101.84143829345703)" patternUnits="userSpaceOnUse" height="350" width="350" id="pattern_L1_1">
   <use id="svg_15" y="-350" x="-350" xlink:href="#L1_1"/>
   <use id="svg_16" y="-350" x="0" xlink:href="#L1_1"/>
   <use id="svg_17" y="-350" x="350" xlink:href="#L1_1"/>
   <use id="svg_18" y="0" x="-350" xlink:href="#L1_1"/>
   <use id="svg_19" y="0" x="0" xlink:href="#L1_1"/>
   <use id="svg_20" y="0" x="350" xlink:href="#L1_1"/>
   <use id="svg_21" y="350" x="-350" xlink:href="#L1_1"/>
   <use id="svg_22" y="350" x="0" xlink:href="#L1_1"/>
   <use id="svg_23" y="350" x="350" xlink:href="#L1_1"/>
  </pattern>
  <pattern patternTransform="matrix(1.211571216583252,0,0,0.8801940679550171,-339.45635986328125,-75.38107299804688)" patternUnits="userSpaceOnUse" height="350" width="350" id="pattern_L1_2">
   <use id="svg_24" y="-350" x="-350" xlink:href="#L1_2"/>
   <use id="svg_25" y="-350" x="0" xlink:href="#L1_2"/>
   <use id="svg_26" y="-350" x="350" xlink:href="#L1_2"/>
   <use id="svg_27" y="0" x="-350" xlink:href="#L1_2"/>
   <use id="svg_28" y="0" x="0" xlink:href="#L1_2"/>
   <use id="svg_29" y="0" x="350" xlink:href="#L1_2"/>
   <use id="svg_30" y="350" x="-350" xlink:href="#L1_2"/>
   <use id="svg_31" y="350" x="0" xlink:href="#L1_2"/>
   <use id="svg_32" y="350" x="350" xlink:href="#L1_2"/>
  </pattern>
 </defs>
 <g>
  <title>background</title>
  <rect fill="none" id="canvas_background" height="252" width="252" y="-1" x="-1"/>
 </g>
 <g>
  <title>Layer 1</title>
  <rect id="svg_33" fill="#ffffff" opacity="0" height="100%" width="100%" y="0px" x="0px"/>
  <g id="svg_34">
   <rect id="svg_35" fill="url(#pattern_L1_0)" height="356.988686" width="522.483032" y="-106.324448" x="-262.063957"/>
  </g>
  <g id="svg_36">
   <rect id="svg_37" fill="url(#pattern_L1_1)" height="350" width="512" y="-101.841438" x="-252.086609"/>
  </g>
  <g id="svg_38">
   <rect id="svg_39" fill="url(#pattern_L1_2)" height="308.067928" width="620.324515" y="-75.381078" x="-339.456354"/>
  </g>
 </g>
</svg>