<svg width="250" height="250" xmlns="http://www.w3.org/2000/svg" xmlns:xlink="http://www.w3.org/1999/xlink">
 <defs>
  <g id="L1_5" transform="matrix(0.24159549176692963 0 0 0.24159549176692963 74 59)">
   <path id="svg_1" fill="#f5c345" d="m9.954,241.304993l228.440989,0c3.05101,0 5.896011,-1.246002 7.805008,-3.416c1.658997,-1.882004 2.39299,-4.270004 2.078003,-6.722992c-5.35701,-41.734009 -31.018997,-76.511017 -66.150009,-95.053009c-14.848999,14.848999 -35.347992,24.046005 -57.952995,24.046005s-43.105003,-9.197006 -57.953003,-24.046005c-35.131992,18.537003 -60.798993,53.319016 -66.150992,95.053009c-0.315,2.453003 0.424,4.845993 2.078,6.723007c1.909,2.169998 4.754,3.415985 7.805001,3.415985z"/>
   <path id="svg_2" fill="#f5c345" d="m72.698997,127.089996c1.333,1.397995 2.724998,2.729996 4.166,4.018997c12.585999,11.259003 29.137001,18.166 47.308998,18.166s34.722992,-6.912994 47.30899,-18.166c1.44101,-1.289001 2.834015,-2.621994 4.166,-4.018997c1.327011,-1.398003 2.622009,-2.828003 3.840012,-4.329002c9.860992,-12.210999 15.800003,-27.716995 15.800003,-44.599998c0,-39.215996 -31.906006,-71.115994 -71.116005,-71.115994s-71.113998,31.905 -71.113998,71.115003c0,16.882996 5.938999,32.389999 15.800003,44.599998c1.212997,1.501999 2.506996,2.926994 3.839996,4.329994z"/>
  </g>
  <path fill="#f50e0a" id="L1_6" d="m216.766205,99.579338c-3.869812,-29.736458 -20.341034,-54.736805 -43.340714,-70.353649c-1.08519,-1.296633 -19.153076,-9.813217 -22.522491,-5.434103c-3.371536,4.379831 15.369934,22.404932 15.369934,22.404932c17.344574,12.91412 29.640182,32.567245 32.65123,55.704735c5.898865,45.328163 -26.06398,86.855186 -71.392143,92.754051c-45.327736,5.898819 -86.855312,-26.064835 -92.754124,-71.392563c-5.585827,-42.922684 22.782505,-82.431854 64.296391,-91.512497l1.95549,15.026398c0.179985,1.38306 1.446808,2.357349 2.828995,2.177475c0,0 36.108025,-25.697708 37.741722,-27.819206c1.633209,-2.121878 -0.488556,-3.75421 -0.488556,-3.75421l-43.60524,-17.233854c-1.382629,0.179931 -2.357452,1.445943 -2.177582,2.828135l1.415413,10.876343c-51.373447,10.407928 -86.677979,58.951547 -79.809113,111.733384c7.181171,55.181648 57.736366,94.093452 112.918465,86.912224s94.093506,-57.735931 86.912323,-112.917595z"/>
  <g id="L1_7" transform="matrix(0.24159549176692963 0 0 0.24159549176692963 110 75)">
   <path id="svg_3" fill="#f53131" d="m9.954,241.304993l228.440989,0c3.05101,0 5.896011,-1.246002 7.805008,-3.416c1.658997,-1.882004 2.39299,-4.270004 2.078003,-6.722992c-5.35701,-41.734009 -31.018997,-76.511017 -66.150009,-95.053009c-14.848999,14.848999 -35.347992,24.046005 -57.952995,24.046005s-43.105003,-9.197006 -57.953003,-24.046005c-35.131992,18.537003 -60.798993,53.319016 -66.150992,95.053009c-0.315,2.453003 0.424,4.845993 2.078,6.723007c1.909,2.169998 4.754,3.415985 7.805001,3.415985z"/>
   <path id="svg_4" fill="#f53131" d="m72.698997,127.089996c1.333,1.397995 2.724998,2.729996 4.166,4.018997c12.585999,11.259003 29.137001,18.166 47.308998,18.166s34.722992,-6.912994 47.30899,-18.166c1.44101,-1.289001 2.834015,-2.621994 4.166,-4.018997c1.327011,-1.398003 2.622009,-2.828003 3.840012,-4.329002c9.860992,-12.210999 15.800003,-27.716995 15.800003,-44.599998c0,-39.215996 -31.906006,-71.115994 -71.116005,-71.115994s-71.113998,31.905 -71.113998,71.115003c0,16.882996 5.938999,32.389999 15.800003,44.599998c1.212997,1.501999 2.506996,2.926994 3.839996,4.329994z"/>
  </g>
  <g id="L1_8" transform="matrix(0.24159549176692963 0 0 0.24159549176692963 75 95)">
   <path id="svg_5" fill="#010002" d="m9.954,241.304993l228.440989,0c3.05101,0 5.896011,-1.246002 7.805008,-3.416c1.658997,-1.882004 2.39299,-4.270004 2.078003,-6.722992c-5.35701,-41.734009 -31.018997,-76.511017 -66.150009,-95.053009c-14.848999,14.848999 -35.347992,24.046005 -57.952995,24.046005s-43.105003,-9.197006 -57.953003,-24.046005c-35.131992,18.537003 -60.798993,53.319016 -66.150992,95.053009c-0.315,2.453003 0.424,4.845993 2.078,6.723007c1.909,2.169998 4.754,3.415985 7.805001,3.415985z"/>
   <path id="svg_6" fill="#010002" d="m72.698997,127.089996c1.333,1.397995 2.724998,2.729996 4.166,4.018997c12.585999,11.259003 29.137001,18.166 47.308998,18.166s34.722992,-6.912994 47.30899,-18.166c1.44101,-1.289001 2.834015,-2.621994 4.166,-4.018997c1.327011,-1.398003 2.622009,-2.828003 3.840012,-4.329002c9.860992,-12.210999 15.800003,-27.716995 15.800003,-44.599998c0,-39.215996 -31.906006,-71.115994 -71.116005,-71.115994s-71.113998,31.905 -71.113998,71.115003c0,16.882996 5.938999,32.389999 15.800003,44.599998c1.212997,1.501999 2.506996,2.926994 3.839996,4.329994z"/>
  </g>
  <pattern patternTransform="matrix(1,0,0,1,5.239413261413574,22.70412254333496)" patternUnits="userSpaceOnUse" height="350" width="350" id="pattern_L1_5">
   <use id="svg_7" y="-350" x="-350" xlink:href="#L1_5"/>
   <use id="svg_8" y="-350" x="0" xlink:href="#L1_5"/>
   <use id="svg_9" y="-350" x="350" xlink:href="#L1_5"/>
   <use id="svg_10" y="0" x="-350" xlink:href="#L1_5"/>
   <use id="svg_11" y="0" x="0" xlink:href="#L1_5"/>
   <use id="svg_12" y="0" x="350" xlink:href="#L1_5"/>
   <use id="svg_13" y="350" x="-350" xlink:href="#L1_5"/>
   <use id="svg_14" y="350" x="0" xlink:href="#L1_5"/>
   <use id="svg_15" y="350" x="350" xlink:href="#L1_5"/>
  </pattern>
  <pattern patternTransform="matrix(1.1117740869522095,0,0,1.0768446922302246,-6.421939373016357,7.109696865081787)" patternUnits="userSpaceOnUse" height="350" width="350" id="pattern_L1_6">
   <use id="svg_16" y="-350" x="-350" xlink:href="#L1_6"/>
   <use id="svg_17" y="-350" x="0" xlink:href="#L1_6"/>
   <use id="svg_18" y="-350" x="350" xlink:href="#L1_6"/>
   <use id="svg_19" y="0" x="-350" xlink:href="#L1_6"/>
   <use id="svg_20" y="0" x="0" xlink:href="#L1_6"/>
   <use id="svg_21" y="0" x="350" xlink:href="#L1_6"/>
   <use id="svg_22" y="350" x="-350" xlink:href="#L1_6"/>
   <use id="svg_23" y="350" x="0" xlink:href="#L1_6"/>
   <use id="svg_24" y="350" x="350" xlink:href="#L1_6"/>
  </pattern>
  <pattern patternTransform="matrix(1.0069859027862549,0,0,1.0069859027862549,19.760587692260742,24.45058822631836)" patternUnits="userSpaceOnUse" height="350" width="350" id="pattern_L1_7">
   <use id="svg_25" y="-350" x="-350" xlink:href="#L1_7"/>
   <use id="svg_26" y="-350" x="0" xlink:href="#L1_7"/>
   <use id="svg_27" y="-350" x="350" xlink:href="#L1_7"/>
   <use id="svg_28" y="0" x="-350" xlink:href="#L1_7"/>
   <use id="svg_29" y="0" x="0" xlink:href="#L1_7"/>
   <use id="svg_30" y="0" x="350" xlink:href="#L1_7"/>
   <use id="svg_31" y="350" x="-350" xlink:href="#L1_7"/>
   <use id="svg_32" y="350" x="0" xlink:href="#L1_7"/>
   <use id="svg_33" y="350" x="350" xlink:href="#L1_7"/>
  </pattern>
  <pattern patternTransform="matrix(1,0,0,1,17.914880752563477,22.233020782470703)" patternUnits="userSpaceOnUse" height="350" width="350" id="pattern_L1_8">
   <use id="svg_34" y="-350" x="-350" xlink:href="#L1_8"/>
   <use id="svg_35" y="-350" x="0" xlink:href="#L1_8"/>
   <use id="svg_36" y="-350" x="350" xlink:href="#L1_8"/>
   <use id="svg_37" y="0" x="-350" xlink:href="#L1_8"/>
   <use id="svg_38" y="0" x="0" xlink:href="#L1_8"/>
   <use id="svg_39" y="0" x="350" xlink:href="#L1_8"/>
   <use id="svg_40" y="350" x="-350" xlink:href="#L1_8"/>
   <use id="svg_41" y="350" x="0" xlink:href="#L1_8"/>
   <use id="svg_42" y="350" x="350" xlink:href="#L1_8"/>
  </pattern>
 </defs>
 <g>
  <title>background</title>
  <rect fill="none" id="canvas_background" height="252" width="252" y="-1" x="-1"/>
 </g>
 <g>
  <title>Layer 1</title>
  <rect id="svg_43" fill="#ffffff" opacity="0" height="250" width="250" y="0" x="0"/>
  <g id="svg_44">
   <rect id="svg_45" fill="url(#pattern_L1_5)" height="250" width="250" y="22.704122" x="5.239413"/>
  </g>
  <g id="svg_46">
   <rect id="svg_47" fill="url(#pattern_L1_6)" height="269.211173" width="277.943522" y="7.109697" x="-6.421939"/>
  </g>
  <g id="svg_48">
   <rect id="svg_49" fill="url(#pattern_L1_7)" height="251.746476" width="251.746476" y="24.450589" x="19.760587"/>
  </g>
  <g id="svg_50">
   <rect id="svg_51" fill="url(#pattern_L1_8)" height="250" width="250" y="22.233025" x="17.914881"/>
  </g>
 </g>
</svg>